<?xml version="1.0" encoding="utf-8"?>
<svg version="1.0" width="225.000000pt" height="225.000000pt" viewBox="0 0 225.000000 225.000000" preserveAspectRatio="xMidYMid meet" xmlns="http://www.w3.org/2000/svg">
  <g transform="translate(0.000000,225.000000) scale(0.100000,-0.100000)" fill="#000000" stroke="none">
    <path d="M1111 2219 c-112 -26 -204 -66 -303 -132 -116 -78 -185 -142 -266 -249 -128 -169 -208 -352 -251 -572 -28 -144 -26 -160 8 -51 123 399 336 683 616 820 123 61 223 85 349 85 153 0 266 -37 416 -134 61 -40 70 -43 70 -20 0 27 -59 103 -113 143 -75 57 -142 88 -241 111 -104 24 -173 24 -285 -1z" style="fill: rgb(246, 242, 242);"/>
    <path d="M1046 1786 c-73 -31 -118 -74 -147 -140 -74 -170 38 -367 219 -383 261 -24 405 273 224 460 -51 53 -102 77 -175 83 -51 4 -72 0 -121 -20z" style="fill: rgb(246, 242, 242);"/>
    <path d="M1250 1083 c-72 -27 -99 -32 -172 -33 l-88 0 0 -439 c0 -301 4 -449 11 -472 31 -90 138 -142 226 -108 44 16 90 67 102 112 8 29 11 182 9 507 l-3 465 -85 -32z" style="fill: rgb(246, 242, 242);"/>
  </g>
</svg>