<?xml version="1.0" encoding="utf-8"?>
<svg version="1.0" width="200.000000pt" height="200.000000pt" viewBox="0 0 200.000000 200.000000" preserveAspectRatio="xMidYMid meet" xmlns="http://www.w3.org/2000/svg">
  <g transform="translate(0.000000,200.000000) scale(0.100000,-0.100000)" fill="#000000" stroke="none">
    <path d="M1077 1985 c-217 -41 -407 -162 -541 -345 -97 -132 -188 -346 -221 -524 -21 -111 -18 -141 13 -141 20 0 29 12 56 80 106 259 259 480 419 601 77 59 203 119 292 139 86 20 249 20 343 0 39 -8 108 -29 152 -46 115 -44 138 -27 82 62 -49 76 -126 128 -242 163 -77 24 -256 29 -353 11z m275 -59 c82 -15 187 -57 213 -86 16 -18 14 -18 -44 0 -33 11 -100 24 -148 31 -349 46 -677 -135 -898 -496 -45 -73 -37 -38 15 67 121 243 282 390 506 457 128 39 239 47 356 27z" style="fill: rgb(242, 242, 242);"/>
    <path d="M1067 1649 c-266 -65 -301 -420 -52 -530 181 -81 389 57 388 256 0 175 -171 315 -336 274z m151 -78 c78 -40 122 -111 122 -196 0 -122 -93 -215 -215 -215 -122 0 -215 93 -215 215 0 85 45 156 125 198 43 23 137 22 183 -2z" style="fill: rgb(242, 242, 242);"/>
    <path d="M1275 1040 c-51 -23 -200 -57 -287 -65 l-68 -7 0 -406 c0 -374 2 -410 19 -447 34 -73 102 -115 186 -115 84 0 152 42 186 115 17 37 19 74 19 493 0 248 -3 452 -7 451 -5 0 -26 -9 -48 -19z m-7 -486 c-3 -443 -2 -431 -71 -475 -45 -28 -127 -22 -163 12 -53 48 -54 60 -54 453 l0 365 48 6 c69 9 195 36 212 45 8 5 19 5 23 1 4 -4 7 -188 5 -407z" style="fill: rgb(242, 242, 242);"/>
  </g>
</svg>