<?xml version="1.0" encoding="utf-8"?>
<svg version="1.0" width="820.000000pt" height="684.000000pt" viewBox="0 0 820.000000 684.000000" preserveAspectRatio="xMidYMid meet" xmlns="http://www.w3.org/2000/svg">
  <g transform="translate(0.000000,684.000000) scale(0.100000,-0.100000)" fill="#000000" stroke="none">
    <path d="M6465 6760 c-132 -33 -220 -72 -318 -139 -65 -45 -181 -156 -259 -248 l-27 -31 -78 29 c-257 97 -542 145 -803 136 -267 -9 -402 -52 -587 -184 -310 -222 -480 -616 -512 -1188 -4 -74 -10 -137 -14 -141 -4 -4 -55 -11 -114 -15 -102 -8 -159 -14 -367 -39 -167 -20 -442 -77 -636 -132 -262 -75 -453 -152 -717 -288 -106 -55 -198 -100 -204 -100 -7 0 -42 20 -78 44 -84 55 -236 128 -321 154 -112 34 -223 45 -400 40 -180 -6 -254 -19 -368 -68 -105 -44 -183 -95 -278 -178 -184 -160 -274 -310 -360 -602 -42 -145 -4 -383 95 -578 92 -181 246 -351 414 -455 46 -28 47 -30 40 -66 -14 -71 -8 -371 11 -486 18 -119 62 -286 101 -390 59 -155 193 -391 306 -537 93 -121 284 -316 416 -426 516 -430 1300 -741 2098 -832 55 -7 147 -18 205 -26 124 -17 613 -19 705 -4 33 6 105 15 160 21 677 69 1291 261 1780 556 181 108 227 140 335 226 225 180 463 433 594 632 130 197 254 504 295 730 24 136 33 284 27 431 l-7 152 45 26 c190 111 368 324 444 532 56 152 74 243 69 361 -16 441 -363 853 -817 970 -93 24 -124 27 -270 28 -149 0 -175 -3 -270 -28 -113 -29 -252 -93 -340 -157 -30 -21 -69 -47 -86 -56 l-31 -16 -154 80 c-209 110 -381 183 -589 252 -344 114 -731 191 -1132 226 -62 5 -78 10 -79 23 -4 71 4 216 16 316 19 156 55 287 110 403 76 160 214 274 372 307 124 26 287 17 463 -26 127 -31 357 -120 372 -143 4 -6 8 -39 8 -73 0 -198 108 -432 274 -599 120 -119 279 -212 441 -255 66 -18 108 -22 245 -22 151 -1 172 2 253 26 311 96 557 325 656 613 157 461 -82 985 -533 1163 -222 89 -395 103 -601 51z m395 -476 c186 -88 313 -279 297 -448 -17 -179 -136 -337 -307 -407 -79 -32 -229 -32 -320 -1 -77 26 -163 91 -219 164 -185 246 -73 589 229 700 65 24 87 28 165 25 76 -2 100 -8 155 -33z m-2350 -1819 c354 -38 636 -97 943 -199 400 -132 718 -305 1007 -547 232 -194 417 -428 519 -657 174 -391 173 -763 -3 -1146 -118 -257 -350 -528 -631 -737 -483 -360 -1088 -579 -1825 -661 -149 -17 -714 -17 -875 0 -375 39 -756 129 -1075 255 -907 356 -1466 975 -1507 1665 -7 123 17 300 59 442 161 542 679 1029 1393 1314 399 158 820 251 1305 286 166 12 510 4 690 -15z m-3243 -310 c133 -42 136 -27 -45 -210 -209 -212 -347 -397 -452 -606 -17 -33 -38 -63 -47 -66 -42 -16 -171 182 -193 298 -20 102 11 252 71 342 42 64 160 172 222 204 133 68 303 83 444 38z m5955 6 c114 -29 193 -74 270 -151 78 -80 132 -183 150 -287 22 -130 -32 -297 -131 -405 -29 -32 -57 -58 -62 -58 -4 0 -26 36 -48 80 -106 210 -238 386 -454 607 l-159 161 24 16 c79 52 281 70 410 37z" style="fill: rgb(242, 238, 238);"/>
    <path d="M2706 3414 c-135 -33 -272 -138 -338 -259 -31 -59 -58 -167 -58 -233 1 -173 110 -358 257 -434 115 -60 162 -71 278 -66 94 4 108 8 188 46 122 60 196 131 250 241 38 79 42 93 45 184 7 159 -39 278 -150 383 -133 128 -306 178 -472 138z" style="fill: rgb(242, 238, 238);"/>
    <path d="M5241 3414 c-100 -21 -168 -59 -248 -140 -102 -101 -146 -193 -151 -319 -7 -163 43 -291 156 -397 134 -124 312 -168 487 -118 104 30 171 68 228 130 280 302 135 760 -269 845 -84 18 -119 18 -203 -1z" style="fill: rgb(242, 238, 238);"/>
    <path d="M5300 1796 c-19 -7 -73 -34 -119 -60 -443 -247 -982 -342 -1496 -265 -161 24 -454 118 -567 182 -96 54 -124 71 -143 87 -45 38 -110 60 -178 60 -81 0 -129 -18 -179 -67 -92 -90 -88 -266 9 -354 56 -51 275 -175 411 -233 300 -128 573 -185 928 -193 365 -9 669 38 1012 154 211 71 488 206 556 271 77 74 107 192 70 280 -47 113 -192 179 -304 138z" style="fill: rgb(242, 238, 238);"/>
  </g>
</svg>